<?xml version="1.0" encoding="UTF-8" standalone="no"?>
<!DOCTYPE svg PUBLIC "-//W3C//DTD SVG 1.1//EN" "http://www.w3.org/Graphics/SVG/1.1/DTD/svg11.dtd">
<svg version="1.1" xmlns="http://www.w3.org/2000/svg" xmlns:xlink="http://www.w3.org/1999/xlink" preserveAspectRatio="xMidYMid meet" viewBox="164.9484536082474 178.3505154639176 100 100.00000000000006" width="100" height="100"><defs><path d="M189.95 181.48C189.95 181.68 189.95 182.73 189.95 184.6L239.95 184.6C239.95 182.73 239.95 181.68 239.95 181.48C239.95 179.75 241.35 178.35 243.07 178.35C244.8 178.35 246.2 179.75 246.2 181.48C246.2 181.68 246.2 182.73 246.2 184.6C249.95 184.6 252.03 184.6 252.45 184.6C259.35 184.6 264.95 190.2 264.95 197.1C264.95 203.98 264.95 258.98 264.95 265.85C264.95 272.75 259.35 278.35 252.45 278.35C244.95 278.35 184.95 278.35 177.45 278.35C170.54 278.35 164.95 272.75 164.95 265.85C164.95 258.98 164.95 203.98 164.95 197.1C164.95 190.2 170.54 184.6 177.45 184.6C177.87 184.6 179.95 184.6 183.7 184.6C183.7 182.73 183.7 181.68 183.7 181.48C183.7 179.75 185.1 178.35 186.82 178.35C188.55 178.35 189.95 179.75 189.95 181.48ZM171.2 265.85C171.2 269.3 174 272.1 177.45 272.1C184.95 272.1 244.95 272.1 252.45 272.1C255.9 272.1 258.7 269.3 258.7 265.85C258.7 261.68 258.7 240.85 258.7 203.35L171.2 203.35C171.2 240.85 171.2 261.68 171.2 265.85Z" id="f1tNtn4Cf"></path><path d="M236.82 215.85C237.45 215.85 242.45 215.85 243.07 215.85C244.8 215.85 246.2 217.25 246.2 218.98C246.2 219.6 246.2 224.6 246.2 225.23C246.2 226.95 244.8 228.35 243.07 228.35C242.45 228.35 237.45 228.35 236.82 228.35C235.1 228.35 233.7 226.95 233.7 225.23C233.7 224.81 233.7 222.73 233.7 218.98C234.63 216.89 235.67 215.85 236.82 215.85Z" id="e1O9RxZ9K9"></path></defs><g><g><g><use xlink:href="#f1tNtn4Cf" opacity="1" fill="#3182ce" fill-opacity="1"></use><g><use xlink:href="#f1tNtn4Cf" opacity="1" fill-opacity="0" stroke="#000000" stroke-width="1" stroke-opacity="0"></use></g></g><g><use xlink:href="#e1O9RxZ9K9" opacity="1" fill="#3182ce" fill-opacity="1"></use><g><use xlink:href="#e1O9RxZ9K9" opacity="1" fill-opacity="0" stroke="#000000" stroke-width="1" stroke-opacity="0"></use></g></g></g></g></svg>